<svg width="174" height="174" viewBox="0 0 174 174" fill="none" xmlns="http://www.w3.org/2000/svg">
<g filter="url(#filter0_d_0_1)">
<circle cx="87" cy="69" r="47" fill="url(#paint0_linear_0_1)"/>
<circle cx="87" cy="69" r="44.5" stroke="white" stroke-width="5"/>
</g>
<path d="M76.0923 76.3033H96.8176V85.3143H76.0923V76.3033Z" fill="white"/>
<path d="M97.5385 78.1956C97.5385 75.2322 96.3707 72.3901 94.2922 70.2947C92.2136 68.1992 89.3945 67.022 86.4549 67.022C83.5154 67.022 80.6963 68.1992 78.6177 70.2947C76.5392 72.3901 75.3714 75.2322 75.3714 78.1956L86.4549 78.1956H97.5385Z" fill="white"/>
<path fill-rule="evenodd" clip-rule="evenodd" d="M86.5 80.989C92.8452 80.989 97.989 75.8452 97.989 69.5C97.989 63.1548 92.8452 58.011 86.5 58.011C80.1548 58.011 75.011 63.1548 75.011 69.5C75.011 75.8452 80.1548 80.989 86.5 80.989ZM86.5 90C97.8218 90 107 80.8218 107 69.5C107 58.1782 97.8218 49 86.5 49C75.1782 49 66 58.1782 66 69.5C66 80.8218 75.1782 90 86.5 90Z" fill="white"/>
<defs>
<filter id="filter0_d_0_1" x="0" y="0" width="174" height="174" filterUnits="userSpaceOnUse" color-interpolation-filters="sRGB">
<feFlood flood-opacity="0" result="BackgroundImageFix"/>
<feColorMatrix in="SourceAlpha" type="matrix" values="0 0 0 0 0 0 0 0 0 0 0 0 0 0 0 0 0 0 127 0" result="hardAlpha"/>
<feOffset dy="18"/>
<feGaussianBlur stdDeviation="20"/>
<feColorMatrix type="matrix" values="0 0 0 0 0.439216 0 0 0 0 0.564706 0 0 0 0 0.690196 0 0 0 0.12 0"/>
<feBlend mode="normal" in2="BackgroundImageFix" result="effect1_dropShadow_0_1"/>
<feBlend mode="normal" in="SourceGraphic" in2="effect1_dropShadow_0_1" result="shape"/>
</filter>
<linearGradient id="paint0_linear_0_1" x1="87" y1="22" x2="87" y2="116" gradientUnits="userSpaceOnUse">
<stop stop-color="#FD71AF"/>
<stop offset="1" stop-color="#FEC6DF"/>
</linearGradient>
</defs>
</svg>
