<svg width="32" height="32" viewBox="0 0 32 32" fill="none" xmlns="http://www.w3.org/2000/svg">
<path opacity="0.2" d="M26.0001 24H6.00009C5.82506 23.9989 5.65338 23.952 5.5022 23.8638C5.35101 23.7756 5.22563 23.6492 5.13857 23.4974C5.05152 23.3456 5.00584 23.1735 5.0061 22.9985C5.00637 22.8235 5.05257 22.6516 5.14009 22.5C5.96384 21.075 7.00009 17.4762 7.00009 13C7.00009 10.6131 7.9483 8.32387 9.63613 6.63604C11.324 4.94821 13.6131 4 16.0001 4C18.387 4 17.3122 8.31217 19 10C20.6878 11.6878 25.0001 10.6131 25.0001 13C25.0001 17.4775 26.0376 21.075 26.8626 22.5C26.9502 22.6518 26.9964 22.8239 26.9966 22.9991C26.9967 23.1744 26.9508 23.3466 26.8635 23.4985C26.7761 23.6504 26.6504 23.7767 26.4989 23.8647C26.3473 23.9527 26.1753 23.9994 26.0001 24Z" fill="#7B68EE"/>
<path d="M21 28C21 28.2652 20.8946 28.5196 20.7071 28.7071C20.5196 28.8946 20.2652 29 20 29H12C11.7348 29 11.4804 28.8946 11.2929 28.7071C11.1053 28.5196 11 28.2652 11 28C11 27.7348 11.1053 27.4804 11.2929 27.2929C11.4804 27.1054 11.7348 27 12 27H20C20.2652 27 20.5196 27.1054 20.7071 27.2929C20.8946 27.4804 21 27.7348 21 28ZM27.7312 24C27.5577 24.3056 27.3058 24.5595 27.0015 24.7353C26.6972 24.911 26.3514 25.0024 26 25H5.99999C5.64841 24.9995 5.30317 24.9064 4.99906 24.73C4.69495 24.5535 4.44272 24.3 4.2678 23.9951C4.09288 23.6901 4.00144 23.3444 4.0027 22.9928C4.00396 22.6412 4.09788 22.2962 4.27499 21.9925C4.96874 20.7975 5.99999 17.4175 5.99999 13C5.99999 10.3478 7.05356 7.8043 8.92892 5.92893C10.8043 4.05357 13.3478 3 16 3C18.6522 3 17.1246 7.62464 19 9.5C20.8754 11.3754 26 9.34784 26 12C26 16.4163 27.0325 20.7975 27.7262 21.9925C27.9051 22.2966 27.9997 22.6429 28.0004 22.9957C28.0011 23.3486 27.9077 23.6952 27.73 24H27.7312ZM26 23C25.0337 21.3412 24 17.0063 24 12.5C24 10.3783 19.5003 12.0003 18 10.5C16.4997 8.99971 17.6217 5 15.5 5C13.3783 5 11.8434 5.84285 10.3431 7.34315C8.84284 8.84344 7.99999 10.8783 7.99999 13C7.99999 17.5075 6.96499 21.3425 5.99999 23H26Z" fill="#7B68EE"/>
</svg>
