<svg width="24" height="26" viewBox="0 0 24 26" fill="none" xmlns="http://www.w3.org/2000/svg">
    <path opacity="0.2" d="M26.0001 24H6.00009C5.82506 23.9989 5.65338 23.952 5.5022 23.8638C5.35101 23.7756 5.22563 23.6492 5.13857 23.4974C5.05152 23.3456 5.00584 23.1735 5.0061 22.9985C5.00637 22.8235 5.05257 22.6516 5.14009 22.5C5.96384 21.075 7.00009 17.4762 7.00009 13C7.00009 10.6131 7.9483 8.32387 9.63613 6.63604C11.324 4.94821 13.6131 4 16.0001 4C18.387 4 17.3122 8.31217 19 10C20.6878 11.6878 25.0001 10.6131 25.0001 13C25.0001 17.4775 26.0376 21.075 26.8626 22.5C26.9502 22.6518 26.9964 22.8239 26.9966 22.9991C26.9967 23.1744 26.9508 23.3466 26.8635 23.4985C26.7761 23.6504 26.6504 23.7767 26.4989 23.8647C26.3473 23.9527 26.1753 23.9994 26.0001 24Z" fill="#7B68EE"/>
    <path d="M17 25C17 25.2652 16.8946 25.5196 16.7071 25.7071C16.5196 25.8946 16.2652 26 16 26H7.99999C7.73477 26 7.48042 25.8946 7.29288 25.7071C7.10534 25.5196 6.99999 25.2652 6.99999 25C6.99999 24.7348 7.10534 24.4804 7.29288 24.2929C7.48042 24.1054 7.73477 24 7.99999 24H16C16.2652 24 16.5196 24.1054 16.7071 24.2929C16.8946 24.4804 17 24.7348 17 25ZM23.7312 21C23.5577 21.3056 23.3058 21.5595 23.0015 21.7353C22.6972 21.911 22.3514 22.0024 22 22H1.99999C1.64841 21.9995 1.30317 21.9064 0.999058 21.73C0.69495 21.5535 0.442723 21.3 0.267799 20.9951C0.0928752 20.6901 0.00143637 20.3444 0.00269844 19.9928C0.0039605 19.6412 0.097879 19.2962 0.274988 18.9925C0.968738 17.7975 1.99999 14.4175 1.99999 10C1.99999 7.34784 3.05356 4.8043 4.92892 2.92893C6.80428 1.05357 9.34782 0 12 0C14.6522 0 13.1246 4.62464 15 6.5C16.8754 8.37536 22 6.34784 22 9C22 13.4163 23.0325 17.7975 23.7262 18.9925C23.9051 19.2966 23.9997 19.6429 24.0004 19.9957C24.0011 20.3486 23.9077 20.6952 23.73 21H23.7312ZM22 20C21.0337 18.3412 20 14.0063 20 9.5C20 7.37827 15.5003 9.00029 14 7.5C12.4997 5.99971 13.6217 2 11.5 2C9.37825 2 7.84342 2.84285 6.34313 4.34315C4.84284 5.84344 3.99999 7.87827 3.99999 10C3.99999 14.5075 2.96499 18.3425 1.99999 20H22Z" fill="#7B68EE"/>
    <rect x="14" y="-2" width="10" height="10" rx="3.5" fill="#FF5733" stroke="#F2BDE3" stroke-width="3"/>
</svg>
