<svg width="18" height="20" viewBox="0 0 18 20" fill="none" xmlns="http://www.w3.org/2000/svg">
<path d="M9.01108 12.5943C7.54031 12.5943 6.35059 11.4484 6.35059 10.0093C6.35059 8.5701 7.54031 7.4151 9.01108 7.4151C10.4818 7.4151 11.6435 8.5701 11.6435 10.0093C11.6435 11.4484 10.4818 12.5943 9.01108 12.5943Z" fill="black"/>
<path opacity="0.4" d="M17.4609 12.1726C17.2829 11.8976 17.03 11.6226 16.7021 11.4484C16.4398 11.3201 16.2712 11.1093 16.1213 10.8618C15.6435 10.0734 15.9246 9.0376 16.7208 8.5701C17.6576 8.0476 17.9574 6.88344 17.4141 5.97594L16.7864 4.89427C16.2524 3.98677 15.0815 3.66594 14.154 4.1976C13.3296 4.6376 12.2711 4.34427 11.7933 3.5651C11.6434 3.30844 11.5591 3.03344 11.5778 2.75844C11.6059 2.40094 11.4935 2.06177 11.3249 1.78677C10.9783 1.21844 10.3506 0.833435 9.65742 0.833435H8.33654C7.65268 0.851768 7.02502 1.21844 6.67841 1.78677C6.50042 2.06177 6.39737 2.40094 6.41611 2.75844C6.43484 3.03344 6.35053 3.30844 6.20065 3.5651C5.72288 4.34427 4.6643 4.6376 3.84929 4.1976C2.9125 3.66594 1.75087 3.98677 1.20753 4.89427L0.57988 5.97594C0.0459073 6.88344 0.345681 8.0476 1.27311 8.5701C2.06938 9.0376 2.35042 10.0734 1.88202 10.8618C1.72277 11.1093 1.55415 11.3201 1.29184 11.4484C0.973334 11.6226 0.692295 11.8976 0.542408 12.1726C0.195794 12.7409 0.21453 13.4559 0.561144 14.0518L1.20753 15.1518C1.55415 15.7384 2.20053 16.1051 2.87503 16.1051C3.19354 16.1051 3.56825 16.0134 3.86803 15.8301C4.10223 15.6743 4.38326 15.6193 4.69241 15.6193C5.61983 15.6193 6.39737 16.3801 6.41611 17.2876C6.41611 18.3418 7.27796 19.1668 8.36464 19.1668H9.63868C10.716 19.1668 11.5778 18.3418 11.5778 17.2876C11.6059 16.3801 12.3835 15.6193 13.3109 15.6193C13.6107 15.6193 13.8917 15.6743 14.1353 15.8301C14.4351 16.0134 14.8004 16.1051 15.1283 16.1051C15.7934 16.1051 16.4398 15.7384 16.7864 15.1518L17.4422 14.0518C17.7794 13.4376 17.8075 12.7409 17.4609 12.1726Z" fill="black"/>
</svg>
