<svg width="20" height="20" viewBox="0 0 20 20" fill="none" xmlns="http://www.w3.org/2000/svg">
<path d="M13.037 2.66666C12.9937 2.88941 12.9721 3.11584 12.9725 3.34275C12.9725 5.37866 14.6254 7.0291 16.6643 7.0291C16.8888 7.02799 17.1127 7.00644 17.3333 6.9647V14.273C17.3333 17.3476 15.5197 19.1667 12.4405 19.1667H5.73414C2.64694 19.1667 0.833313 17.3476 0.833313 14.273V7.57641C0.833313 4.50178 2.64694 2.66666 5.73414 2.66666H13.037ZM13.0403 8.16811C12.861 8.1939 12.6999 8.29114 12.5937 8.43763L10.3851 11.2789L7.8702 9.29885C7.72661 9.18699 7.54396 9.1376 7.36347 9.16184C7.18298 9.18607 7.01988 9.28188 6.91099 9.42763L4.20263 12.9208C4.10744 13.0395 4.05618 13.1873 4.05754 13.3393L4.05992 13.4405C4.08618 13.7063 4.26851 13.936 4.52966 14.0185C4.82345 14.1112 5.14291 13.9942 5.30693 13.7337L7.57196 10.804L10.0869 12.7759C10.2299 12.8912 10.4138 12.9435 10.5962 12.9208C10.7786 12.898 10.9439 12.8021 11.0541 12.6552L13.6738 9.27471V9.25861C13.8981 8.95725 13.8409 8.53231 13.5448 8.3008C13.4016 8.1902 13.2195 8.14232 13.0403 8.16811Z" fill="#56555C"/>
<path opacity="0.4" d="M16.875 5.41666C18.1406 5.41666 19.1666 4.39065 19.1666 3.12499C19.1666 1.85934 18.1406 0.833328 16.875 0.833328C15.6093 0.833328 14.5833 1.85934 14.5833 3.12499C14.5833 4.39065 15.6093 5.41666 16.875 5.41666Z" fill="#56555C"/>
</svg>
